<?xml version="1.0" encoding="UTF-8" standalone="no"?>
<svg
   xmlns:dc="http://purl.org/dc/elements/1.1/"
   xmlns:cc="http://creativecommons.org/ns#"
   xmlns:rdf="http://www.w3.org/1999/02/22-rdf-syntax-ns#"
   xmlns:svg="http://www.w3.org/2000/svg"
   xmlns="http://www.w3.org/2000/svg"
   xmlns:sodipodi="http://sodipodi.sourceforge.net/DTD/sodipodi-0.dtd"
   xmlns:inkscape="http://www.inkscape.org/namespaces/inkscape"
   viewBox="0 0 178.52 132.62"
   version="1.1"
   id="svg983"
   sodipodi:docname="marketpal-logo.svg"
   inkscape:version="1.0 (4035a4fb49, 2020-05-01)">
  <metadata
     id="metadata987">
    <rdf:RDF>
      <cc:Work
         rdf:about="">
        <dc:format>image/svg+xml</dc:format>
        <dc:type
           rdf:resource="http://purl.org/dc/dcmitype/StillImage" />
      </cc:Work>
    </rdf:RDF>
  </metadata>
  <sodipodi:namedview
     inkscape:document-rotation="0"
     pagecolor="#ffffff"
     bordercolor="#666666"
     borderopacity="1"
     objecttolerance="10"
     gridtolerance="10"
     guidetolerance="10"
     inkscape:pageopacity="0"
     inkscape:pageshadow="2"
     inkscape:window-width="1920"
     inkscape:window-height="1017"
     id="namedview985"
     showgrid="false"
     inkscape:zoom="4.1550246"
     inkscape:cx="34.992047"
     inkscape:cy="87.208065"
     inkscape:window-x="-8"
     inkscape:window-y="-8"
     inkscape:window-maximized="1"
     inkscape:current-layer="layer2" />
  <defs
     id="defs956">
    <style
       id="style954">.cls-1{fill:#ed1c24;}.cls-2{fill:#fff;}.cls-3{fill:#00a651;stroke:#fff;stroke-miterlimit:10;}</style>
  </defs>
  <title
     id="title958">marketpal-logo</title>
  <g
     style="display:none"
     inkscape:label="back-hand2"
     id="layer3"
     inkscape:groupmode="layer">
    <path
       sodipodi:nodetypes="csc"
       id="path1085"
       d="m 78.40743,112.91377 c 0,0 58.83703,5.54264 72.97623,-46.762586 14.13921,-52.305219 -72.97623,46.762586 -72.97623,46.762586 z"
       style="display:inline;fill:#00a651;fill-opacity:1;stroke:none;stroke-width:1px;stroke-linecap:butt;stroke-linejoin:miter;stroke-opacity:1" />
  </g>
  <g
     style="display:inline"
     inkscape:label="hand1"
     id="layer1"
     inkscape:groupmode="layer">
    <path
       class="cls-1"
       d="M 111.00052,118.95001 37.712448,100.69378 C 24.601635,96.914147 17.178665,86.030068 21.089112,76.48861 L 37.95837,35.266089 C 41.903164,25.588124 55.717069,20.841233 68.813674,24.618836 l 56.733706,20.712298 c 4.82351,0.585428 23.3364,8.412144 27.49655,9.814763 4.61376,6.790004 4.01168,16.045478 -4.25811,17.971335 -5.57007,1.297145 -5.80264,-2.88962 -9.92383,-2.630334 -1.67129,0.105148 1.09074,-5.428241 8.46061,3.647223 3.96208,4.879011 -1.36133,15.504925 -6.52328,16.444591 -7.29854,1.328598 -5.77942,-3.076275 -12.16714,-4.418554 -13.80319,-2.900531 1.80299,-0.431966 1.80299,-0.431966 19.81343,2.881218 3.76339,29.775758 -9.15768,15.605898 10.38688,3.78739 10.55724,7.97103 5.9008,14.30523 -3.92516,5.33944 -8.69706,5.46139 -16.17777,3.31069 z"
       id="path960"
       style="stroke-width:1.19794"
       sodipodi:nodetypes="cccccccsssssscsc" />
    <path
       sodipodi:nodetypes="sssss"
       id="path1009"
       d="M 86.166537,19.081241 C 84.16555,4.325366 44.50317,22.098649 40.455361,31.373653 c -3.076006,7.04825 32.66955,-4.736372 34.907471,-6.567046 3.376669,-2.762196 9.708104,15.705443 19.116853,11.534637 5.184792,-2.298368 -6.688436,-5.278881 -8.313148,-17.260003 z"
       style="fill:#ed1c24;fill-opacity:1;stroke:#000000;stroke-width:1px;stroke-linecap:butt;stroke-linejoin:miter;stroke-opacity:0" />
    <path
       id="path1038"
       d="M 127.81306,105.28555 97.229391,93.551664 129.05513,105.66369 Z"
       style="fill:none;fill-opacity:1;stroke:#ffffff;stroke-width:0.370748px;stroke-linecap:butt;stroke-linejoin:miter;stroke-opacity:1" />
    <path
       style="display:inline;fill:none;fill-opacity:1;stroke:#ffffff;stroke-width:0.370748px;stroke-linecap:butt;stroke-linejoin:miter;stroke-opacity:1"
       d="M 137.79708,90.596214 107.21341,78.862328 139.03915,90.974354 Z"
       id="path1038-5" />
    <path
       style="display:inline;fill:none;fill-opacity:1;stroke:#ffffff;stroke-width:0.370748px;stroke-linecap:butt;stroke-linejoin:miter;stroke-opacity:1"
       d="M 145.79559,73.152648 115.21192,61.418762 147.03766,73.530788 Z"
       id="path1038-7" />
  </g>
  <g
     style="display:inline"
     inkscape:label="hand2"
     id="layer2"
     inkscape:groupmode="layer">
    <path
       style="stroke-width:0.966332"
       class="cls-3"
       d="m 90.680332,32.812509 c -0.788059,-0.706745 -1.927474,-0.771209 -2.80775,-0.158851 -9.213803,5.80476 -22.468336,14.284724 -27.495915,16.73807 -1.56388,0.682459 -3.216829,1.087831 -4.892519,1.199849 -1.817626,0.235198 -8.03803,-3.775226 -8.445644,-8.500418 -0.166038,-1.973338 -0.645832,-3.021765 2.75796,-4.171744 C 60.638306,34.286841 80.900545,4.2818935 89.753743,7.5776322 94.278124,9.2344256 101.96024,14.484125 108.6781,17.020104 129.09689,23.022035 157.70063,34.157991 155.932,59.959346 128.46579,53.486979 103.8676,42.60723 90.680332,32.812509 Z"
       id="path978"
       sodipodi:nodetypes="cccccccccc" />
    <g
       id="Layer_2"
       data-name="Layer 2"
       transform="rotate(8.2720887,46.411201,215.30972)">
      <g
         id="Layer_1-2"
         data-name="Layer 1"
         transform="translate(0.96268984,2.4067246)">
        <g
           id="Bull_Bear_Hand"
           data-name="Bull/Bear Hand"
           transform="matrix(1,-0.00225446,0,1,0,0.17017626)">
          <ellipse
             class="cls-3"
             cx="-91.782402"
             cy="46.037804"
             rx="12.360596"
             ry="9.8961391"
             transform="matrix(0.20737133,-0.9782623,0.99303948,0.11778197,0,0)"
             id="ellipse970"
             style="stroke-width:0.93631" />
          <ellipse
             class="cls-3"
             cx="-96.474754"
             cy="66.579102"
             rx="14.937244"
             ry="9.6513863"
             transform="matrix(0.24782613,-0.96880453,0.99403601,0.10905237,0,0)"
             id="ellipse972"
             style="stroke-width:0.937367" />
          <ellipse
             class="cls-3"
             cx="-96.067642"
             cy="79.062347"
             rx="14.028566"
             ry="8.438899"
             transform="matrix(0.21165942,-0.97734349,0.99195108,0.12662173,0,0)"
             id="ellipse974"
             style="stroke-width:0.658062" />
          <ellipse
             class="cls-3"
             cx="-96.125496"
             cy="90.282814"
             rx="11.703894"
             ry="7.4172707"
             transform="matrix(0.18130385,-0.98342713,0.99066401,0.13632618,0,0)"
             id="ellipse976"
             style="stroke-width:0.648687" />
        </g>
      </g>
    </g>
  </g>
</svg>
