<svg xmlns="http://www.w3.org/2000/svg" viewBox="0 0 178.52 132.62"><defs><style>.cls-1{fill:#ed1c24;}.cls-2{fill:#fff;}.cls-3{fill:#00a651;stroke:#fff;stroke-miterlimit:10;}</style></defs><title>marketpal-logo</title><g id="Layer_2" data-name="Layer 2"><g id="Layer_1-2" data-name="Layer 1"><g id="Bull_Bear_Hand" data-name="Bull/Bear Hand"><path class="cls-1" d="M95.36,116.75,14.18,100.6C4.76,98.72-1.45,89,.29,79l7.5-43.2C9.54,25.66,18.59,19,28,20.88L109.19,37c9.41,1.87,15.63,11.56,13.88,21.65l-7.49,43.19C113.83,112,104.78,118.62,95.36,116.75Z"/><path class="cls-1" d="M132.05,124.05,74.32,112.56c-4.79-1-8.13-4.82-7.46-8.64L78.28,38c.67-3.82,5.08-6.14,9.86-5.19L171,49.33c4.78,1,8.12,4.82,7.46,8.64L161.19,89A14.44,14.44,0,0,1,159,92.25l-3.48,3.91-.59,4.63a12.22,12.22,0,0,1-1.12,3.75c-.31.62-.65,1.35-.95,2a8,8,0,0,1-1.89,2.56l-7,6.35a8.77,8.77,0,0,1-2.23,3.58C139.38,121.63,136.73,125,132.05,124.05Z"/><path class="cls-2" d="M144,115.43c-12.93-4-36.32-10.88-45.65-13.78-1.41-.44-3.88-5.17-3.82-5,1.08,3.44,36.89,12.51,52.2,16.24Z"/><path class="cls-2" d="M155.53,96.16l-54-15.26c-1.61-.45-4.37-5.53-4.31-5.35,1.21,3.78,44.27,13.63,61.22,17.32Z"/><path class="cls-2" d="M170.12,76.35l-62.64-17.7c-1.61-.45-4.37-5.54-4.31-5.36,1.52,4.74,67.38,18.5,67.38,18.5Z"/><ellipse class="cls-3" cx="21.91" cy="98.8" rx="15.15" ry="9.21" transform="translate(-79.1 104.97) rotate(-80.99)"/><ellipse class="cls-3" cx="43" cy="102.99" rx="19.44" ry="8.44" transform="translate(-65.69 128.38) rotate(-80.49)"/><ellipse class="cls-3" cx="66.91" cy="107.75" rx="24.15" ry="11.32" transform="translate(-50.36 156.07) rotate(-80.56)"/><ellipse class="cls-3" cx="92.95" cy="112.93" rx="19.34" ry="11.58" transform="translate(-33.2 186.96) rotate(-80.95)"/><path class="cls-3" d="M170.77,47.68s-86-11-103.16-22.24a2.53,2.53,0,0,0-3,.24C55.74,32.73,43,43,38.05,46.14a16.33,16.33,0,0,1-5,1.88c-1.89.49-9.1-2.6-10.26-7.22-.48-1.93-1.15-2.9,2.28-4.52C36,31.15,52.85-1.42,62.74.59c5.05,1,14,5.11,21.51,6.67,8,1.65,15.06,4,26.7,5.83,26.6,4.08,48.18-7.48,49.59-.76C163.31,25.64,170.77,47.68,170.77,47.68Z"/></g></g></g></svg>