<?xml version="1.0" encoding="UTF-8" standalone="no"?>
<svg
   xmlns:dc="http://purl.org/dc/elements/1.1/"
   xmlns:cc="http://creativecommons.org/ns#"
   xmlns:rdf="http://www.w3.org/1999/02/22-rdf-syntax-ns#"
   xmlns:svg="http://www.w3.org/2000/svg"
   xmlns="http://www.w3.org/2000/svg"
   xmlns:sodipodi="http://sodipodi.sourceforge.net/DTD/sodipodi-0.dtd"
   xmlns:inkscape="http://www.inkscape.org/namespaces/inkscape"
   inkscape:version="1.0 (4035a4fb49, 2020-05-01)"
   sodipodi:docname="marketpal-logo.svg"
   id="svg983"
   version="1.1"
   viewBox="0 0 178.52 132.62">
  <metadata
     id="metadata987">
    <rdf:RDF>
      <cc:Work
         rdf:about="">
        <dc:format>image/svg+xml</dc:format>
        <dc:type
           rdf:resource="http://purl.org/dc/dcmitype/StillImage" />
      </cc:Work>
    </rdf:RDF>
  </metadata>
  <sodipodi:namedview
     inkscape:current-layer="Bull_Bear_Hand"
     inkscape:window-maximized="1"
     inkscape:window-y="-8"
     inkscape:window-x="-8"
     inkscape:cy="49.630198"
     inkscape:cx="38.797891"
     inkscape:zoom="4.1550246"
     showgrid="false"
     id="namedview985"
     inkscape:window-height="1017"
     inkscape:window-width="1920"
     inkscape:pageshadow="2"
     inkscape:pageopacity="0"
     guidetolerance="10"
     gridtolerance="10"
     objecttolerance="10"
     borderopacity="1"
     bordercolor="#666666"
     pagecolor="#ffffff" />
  <defs
     id="defs956">
    <style
       id="style954">.cls-1{fill:#ed1c24;}.cls-2{fill:#fff;}.cls-3{fill:#00a651;stroke:#fff;stroke-miterlimit:10;}</style>
  </defs>
  <title
     id="title958">marketpal-logo</title>
  <g
     transform="translate(-0.96268984)"
     data-name="Layer 2"
     id="Layer_2">
    <g
       transform="translate(0.96268984,2.4067246)"
       data-name="Layer 1"
       id="Layer_1-2">
      <g
         transform="matrix(1,-0.00225446,0,1,0,0.17017626)"
         data-name="Bull/Bear Hand"
         id="Bull_Bear_Hand">
        <path
           sodipodi:nodetypes="cccccccscsc"
           style="stroke-width:1.09991"
           id="path960"
           d="M 80.511036,108.2644 17.155351,100.59955 C 5.759079,98.71985 -1.75375,89.000046 0.35129384,78.999991 L 9.4247588,35.799755 C 11.541901,25.659699 22.490549,18.999414 33.874722,20.879118 L 132.09801,36.99656 c 11.38417,1.869703 18.9091,11.559507 16.79195,21.649562 0,0 -5.21325,30.684021 -20.33617,35.156927 -7.27278,2.151071 -41.60572,-4.43536 -41.60572,-4.43536 9.124739,2.27415 9.774305,6.391212 6.657895,13.322431 -2.62698,5.8427 -6.593199,6.64098 -13.094929,5.57428 z"
           class="cls-1" />
        <ellipse
           style="stroke-width:0.93631"
           id="ellipse970"
           transform="matrix(0.20737133,-0.9782623,0.99303948,0.11778197,0,0)"
           ry="9.8961391"
           rx="12.360596"
           cy="46.037804"
           cx="-91.782402"
           class="cls-3" />
        <ellipse
           style="stroke-width:0.937367"
           id="ellipse972"
           transform="matrix(0.24782613,-0.96880453,0.99403601,0.10905237,0,0)"
           ry="9.6513863"
           rx="14.937244"
           cy="66.579102"
           cx="-96.474754"
           class="cls-3" />
        <ellipse
           style="stroke-width:0.658062"
           id="ellipse974"
           transform="matrix(0.21165942,-0.97734349,0.99195108,0.12662173,0,0)"
           ry="8.438899"
           rx="14.028566"
           cy="79.062347"
           cx="-96.067642"
           class="cls-3" />
        <ellipse
           style="stroke-width:0.648687"
           id="ellipse976"
           transform="matrix(0.18130385,-0.98342713,0.99066401,0.13632618,0,0)"
           ry="7.4172707"
           rx="11.703894"
           cy="90.282814"
           cx="-96.125496"
           class="cls-3" />
        <path
           sodipodi:nodetypes="cccccccccccc"
           id="path978"
           d="m 146.08873,42.847979 c 0,0 -61.31873,-6.167979 -78.47873,-17.407979 -0.94404,-0.588139 -2.161471,-0.490744 -3,0.24 C 55.74,32.73 43,43 38.05,46.14 c -1.552179,0.896861 -3.241441,1.532024 -5,1.88 -1.89,0.49 -9.1,-2.6 -10.26,-7.22 -0.48,-1.93 -1.15,-2.9 2.28,-4.52 C 36,31.15 52.85,-1.42 62.74,0.59 c 5.05,1 14,5.11 21.51,6.67 8,1.65 15.06,4 26.7,5.83 25.15597,2.274957 27.10882,-0.03773 31.76789,3.192524 0.84462,8.868514 3.37084,26.565455 3.37084,26.565455 z"
           class="cls-3" />
      </g>
    </g>
  </g>
</svg>
